#!OML:ASF H:\Terrain\Walking\May29\JustinRory\Justin.ASF
:FULLY-SPECIFIED
:DEGREES
2214
root 9.95872 14.61 23.2826 -254.194 -70.979 260.375 
lowerback 27.878 2.00263 1.62905 
upperback 8.67283 2.39539 4.09195 
thorax -5.80244 0.722296 2.85654 
lowerneck -5.54936 -13.5819 -16.9373 
upperneck 21.239 -20.1439 13.56 
head 10.8946 -9.6491 4.85235 
rclavicle 2.38542e-15 -9.54166e-15 
rhumerus -20.8544 -58.6583 -16.1945 
rradius 28.1664 
rwrist -54.2964 
rhand -6.0648 -7.2625 
rfingers 7.12502 
rthumb 19.7701 -36.2771 
lclavicle 2.38542e-15 -9.54166e-15 
lhumerus -40.0073 21.7121 32.6253 
lradius 70.8207 
lwrist 3.00807 
lhand -9.47752 32.7128 
lfingers 7.12502 
lthumb 16.4867 62.0323 
rfemur -24.0471 -8.06302 7.06212 
rtibia 50.5099 
rfoot -13.1742 -5.96691 
rtoes -43.0148 
lfemur -66.2254 16.6851 -5.06384 
ltibia 91.0851 
lfoot -20.4341 -9.4314 
ltoes -5.01902 
2215
root 9.93421 14.5572 23.332 -253.531 -70.3033 259.527 
lowerback 27.9285 1.85692 2.13191 
upperback 8.6663 2.33556 4.12476 
thorax -5.80924 0.688798 2.62295 
lowerneck -5.65057 -13.6575 -17.0645 
upperneck 22.2405 -20.4259 13.528 
head 11.3501 -9.78136 4.80186 
rclavicle -1.82882e-14 -2.22639e-14 
rhumerus -20.118 -57.594 -16.1658 
rradius 27.4128 
rwrist -52.854 
rhand -5.84107 -7.95495 
rfingers 7.12502 
rthumb 19.9851 -36.9472 
lclavicle -1.82882e-14 -2.22639e-14 
lhumerus -40.0818 21.4313 32.6192 
lradius 70.3205 
lwrist 3.21065 
lhand -9.71161 32.5989 
lfingers 7.12502 
lthumb 16.2613 61.937 
rfemur -24.1209 -7.4312 7.35905 
rtibia 50.8342 
rfoot -12.9117 -6.09867 
rtoes -42.4317 
lfemur -67.1422 17.3927 -4.87249 
ltibia 92.1195 
lfoot -19.1774 -9.9783 
ltoes -4.73121 
2216
root 9.90898 14.5025 23.3849 -252.79 -69.7728 258.549 
lowerback 27.9638 1.76297 2.49299 
upperback 8.768 2.28755 4.17363 
thorax -5.69542 0.655978 2.48554 
lowerneck -6.24515 -13.9302 -17.2881 
upperneck 23.4627 -20.8805 13.2933 
head 12.0166 -9.97998 4.61874 
rclavicle -8.74653e-15 -3.81667e-14 
rhumerus -19.2791 -57.3159 -15.9765 
rradius 26.3216 
rwrist -50.4927 
rhand -5.18522 -8.09333 
rfingers 7.12502 
rthumb 20.6154 -37.0186 
lclavicle -8.74653e-15 -3.81667e-14 
lhumerus -39.9887 21.3651 32.7805 
lradius 69.6531 
lwrist 3.20953 
lhand -9.6516 32.3786 
lfingers 7.12502 
lthumb 16.3191 61.7119 
rfemur -24.1705 -6.73226 7.44474 
rtibia 51.2304 
rfoot -13.1594 -5.70561 
rtoes -40.5226 
lfemur -67.924 18.0426 -4.88522 
ltibia 93.1426 
lfoot -17.8281 -10.3841 
ltoes -2.93745 
2217
root 9.88074 14.4447 23.4422 -251.465 -69.9496 257.075 
lowerback 27.8551 1.82769 2.28573 
upperback 8.85742 2.28941 4.05052 
thorax -5.54814 0.655628 2.46814 
lowerneck -6.29864 -14.2144 -17.319 
upperneck 23.8758 -21.2946 13.045 
head 12.2363 -10.1786 4.44198 
rclavicle -2.22639e-14 -3.49861e-14 
rhumerus -18.9201 -55.9895 -15.504 
rradius 25.6817 
rwrist -49.3947 
rhand -5.04192 -8.26118 
rfingers 7.12502 
rthumb 20.7531 -37.1714 
lclavicle -2.22639e-14 -3.49861e-14 
lhumerus -39.5891 21.2803 33.2625 
lradius 68.8831 
lwrist 3.07374 
lhand -9.80948 32.1523 
lfingers 7.12502 
lthumb 16.1671 61.4981 
rfemur -24.4236 -6.31369 6.72489 
rtibia 51.6777 
rfoot -13.1717 -5.2685 
rtoes -39.9087 
lfemur -68.7995 18.3302 -5.817 
ltibia 94.1162 
lfoot -16.5568 -10.485 
ltoes -1.58374 
2218
root 9.85018 14.3915 23.5023 -250.946 -69.9682 256.304 
lowerback 27.9931 1.79269 2.31742 
upperback 8.87593 2.24972 4.06685 
thorax -5.59117 0.631779 2.48041 
lowerneck -4.80693 -13.9787 -17.0145 
upperneck 21.067 -20.7861 13.4749 
head 10.8026 -9.99619 4.75939 
rclavicle 7.15625e-15 4.77083e-15 
rhumerus -18.6683 -54.1169 -15.0617 
rradius 25.4823 
rwrist -49.3218 
rhand -5.3466 -8.67085 
rfingers 7.12502 
rthumb 20.4604 -37.6128 
lclavicle 7.15625e-15 4.77083e-15 
lhumerus -39.3969 21.0025 33.9133 
lradius 68.1489 
lwrist 2.82095 
lhand -10.2167 32.1619 
lfingers 7.12502 
lthumb 15.775 61.5391 
rfemur -24.4477 -6.12887 6.25762 
rtibia 52.1211 
rfoot -12.9553 -5.14172 
rtoes -40.1798 
lfemur -69.6047 18.4776 -6.57788 
ltibia 94.9964 
lfoot -15.5606 -10.7179 
ltoes -2.12607 
2219
root 9.8184 14.3381 23.5542 -251.017 -69.2604 255.969 
lowerback 28.3159 1.7108 2.98193 
upperback 8.97099 2.31178 4.30167 
thorax -5.61741 0.643657 2.33946 
lowerneck -5.35385 -14.2841 -17.8083 
upperneck 22.6523 -21.3681 13.4961 
head 11.7128 -10.2716 4.72183 
rclavicle 3.57812e-14 4.6118e-14 
rhumerus -18.3904 -53.4396 -14.5867 
rradius 25.1028 
rwrist -48.4022 
rhand -5.78847 -8.85127 
rfingers 7.12502 
rthumb 20.0357 -37.8383 
lclavicle 3.57812e-14 4.6118e-14 
lhumerus -39.2294 20.9219 34.5214 
lradius 67.3245 
lwrist 2.27381 
lhand -10.0556 32.1441 
lfingers 7.12502 
lthumb 15.9301 61.509 
rfemur -24.262 -5.74321 6.71785 
rtibia 52.4854 
rfoot -12.8685 -5.38261 
rtoes -40.4874 
lfemur -70.2192 18.9641 -6.45966 
ltibia 95.7326 
lfoot -14.7554 -11.4214 
ltoes -3.85872 
2220
root 9.78385 14.2882 23.6085 -250.54 -69.1522 255.056 
lowerback 28.5792 1.71059 3.13099 
upperback 9.09794 2.32855 4.29803 
thorax -5.59226 0.639633 2.24428 
lowerneck -4.62799 -14.3212 -18.0075 
upperneck 21.258 -21.3731 14.0 
head 11.1385 -10.2972 4.97662 
rclavicle 1.43125e-14 3.81667e-14 
rhumerus -18.2848 -53.9176 -14.0591 
rradius 24.5744 
rwrist -46.6861 
rhand -5.97522 -8.87277 
rfingers 7.12502 
rthumb 19.8562 -37.8785 
lclavicle 1.43125e-14 3.81667e-14 
lhumerus -38.8759 20.8712 35.0245 
lradius 66.4377 
lwrist 1.78594 
lhand -9.68631 32.1333 
lfingers 7.12502 
lthumb 16.2857 61.4693 
rfemur -24.0595 -5.56773 6.50669 
rtibia 52.7695 
rfoot -12.6873 -5.95279 
rtoes -42.1329 
lfemur -70.6311 19.1247 -7.0389 
ltibia 96.1546 
lfoot -14.2109 -12.3369 
ltoes -4.89567 
2221
root 9.74461 14.243 23.6716 -249.618 -69.7629 253.639 
lowerback 28.8626 1.72248 2.61937 
upperback 9.13406 2.19452 4.0595 
thorax -5.69751 0.573184 2.3157 
lowerneck -4.30348 -14.3207 -18.1224 
upperneck 20.98 -21.3578 13.9876 
head 10.9831 -10.3198 5.014 
rclavicle -1.66979e-14 -4.29375e-14 
rhumerus -18.3398 -52.9434 -13.9531 
rradius 24.7156 
rwrist -46.7523 
rhand -6.00105 -9.14014 
rfingers 7.12502 
rthumb 19.8313 -38.1484 
lclavicle -1.66979e-14 -4.29375e-14 
lhumerus -38.7701 20.5696 35.4098 
lradius 65.5971 
lwrist 1.52503 
lhand -9.85001 32.0862 
lfingers 7.12502 
lthumb 16.1281 61.4351 
rfemur -23.7514 -5.66227 5.39719 
rtibia 53.0203 
rfoot -12.4513 -6.26266 
rtoes -43.2522 
lfemur -70.853 18.8535 -8.49606 
ltibia 96.2648 
lfoot -13.8131 -13.4693 
ltoes -5.07735 
